PathFileType	4	(X/Y/Z)	C:/Users/beibeiliu/ov580/test_trc/User3\sequence.35_training_dense_left.trc
DataRate	CameraRate	NumFrames	NumMarkers	Units	OrigDataRate	OrigDataStartFrame	OrigNumFrames
120	120	15	19	mm	120	28	83
Frame#	Time	ThumbCMC			ThumbMCP			ThumbIP			ThumbTip			IndexMCP			IndexPIP			IndexTip			MiddleMCP			MiddlePIP			MiddleTip			RingMCP			RingPIP			RingTip			PinkyMCP			PinkyPIP			PinkyTip			BackHand1			BackHand2			BackHand3	
		X0	Y0	Z0	X1	Y1	Z1	X2	Y2	Z2	X3	Y3	Z3	X4	Y4	Z4	X5	Y5	Z5	X6	Y6	Z6	X7	Y7	Z7	X8	Y8	Z8	X9	Y9	Z9	X10	Y10	Z10	X11	Y11	Z11	X12	Y12	Z12	X13	Y13	Z13	X14	Y14	Z14	X15	Y15	Z15	X16	Y16	Z16	X17	Y17	Z17	X18	Y18	Z18	
27	0.225	-143.013	10.2001	14.748	-139.605	23.1226	-14.5574	-141.725	22.4355	-48.4391	-137.796	23.1903	-70.1328	-152.153	-9.88065	-56.37	-121.717	-2.23998	-74.5931	-96.67	-1.61712	-56.84	-143.36	-27.3929	-61.5633	-111.561	-24.2183	-68.2059	-91.9527	-11.1963	-33.3093	-137.331	-47.9872	-50.5508	-105.174	-38.5942	-53.5822	-95.0532	-27.255	-27.204	-131.866	-65.2959	-37.7534	-110.039	-53.6552	-46.9413	-96.1185	-36.6975	-25.0333	-164.038	-45.132	1.83929	-159.738	-45.9421	34.0008	-168.374	-15.5614	10.653	
28	0.233333	-149.841	12.4381	14.1414	-148.091	20.1733	-10.098	-151.008	24.684	-41.3254	-148.991	25.1955	-63.5002	-155.329	-11.9922	-58.3834	-128.756	-8.4118	-74.4038	-97.7426	-2.68261	-56.5718	-149.891	-29.5363	-57.4846	-115.389	-23.3611	-68.5345	-95.4161	-17.2232	-39.9459	-139.001	-47.9336	-51.13	-109.364	-38.3427	-55.8413	-97.4242	-26.2529	-29.8888	-136.173	-64.0098	-36.9639	-109.145	-54.933	-45.4168	-96.4855	-37.3716	-24.9387	-167.741	-52.1279	0.639117	-163.183	-45.6904	36.2195	-172.534	-17.3134	14.8324	
29	0.241667	-147.182	13.3751	17.8482	-146.182	23.0131	-10.8148	-145.744	35.7644	-38.9001	-140.032	33.9582	-63.2611	-156.559	-11.6887	-56.5939	-129.632	-5.56262	-76.6848	-99.7757	1.888	-60.2836	-147.885	-32.4901	-60.1844	-116.014	-24.7843	-69.1328	-93.7547	-15.0735	-36.1004	-139.703	-46.4689	-50.5896	-109.997	-39.8688	-55.3863	-95.7365	-30.1641	-28.1236	-135.996	-61.1011	-37.2827	-108.65	-53.1456	-46.1028	-97.5167	-36.2032	-24.547	-167.826	-45.5358	3.48045	-163.066	-44.1174	32.3089	-172.077	-14.3535	14.6025	
30	0.25	-141.659	11.6171	13.3464	-134.28	27.7661	-14.2513	-126.385	30.0026	-39.0902	-119.332	27.6217	-64.8368	-151.087	-5.07431	-61.8502	-126.386	-6.38176	-77.5103	-94.4287	-1.37566	-59.2752	-144.536	-30.0662	-58.335	-110.743	-25.3182	-69.263	-91.118	-18.0504	-38.4324	-135.59	-45.397	-53.1142	-103.99	-41.2805	-53.5015	-95.2181	-25.0963	-26.7848	-130.981	-61.0386	-39.4498	-106.143	-54.6978	-45.0033	-92.9807	-35.5286	-20.1584	-166.54	-48.2317	-0.642344	-161.48	-44.2849	32.2699	-168.736	-13.7501	12.3074	
31	0.258333	-138.148	13.2231	15.0324	-128.432	26.4245	-15.4269	-123.037	25.1328	-41.3308	-115.577	25.1996	-66.4974	-148.34	-6.41317	-61.204	-122.835	-0.817912	-77.0246	-94.1676	2.9694	-58.691	-140.473	-26.337	-62.2849	-108.622	-21.2764	-68.1833	-89.1335	-12.4455	-35.178	-133.999	-46.313	-49.9576	-106.082	-39.5616	-55.8558	-94.1403	-25.8237	-25.9118	-130.241	-62.5552	-36.6475	-101.967	-54.0129	-44.411	-92.4715	-38.5907	-23.5711	-164.601	-45.4576	0.418359	-159.025	-40.7329	32.75	-165.737	-8.16426	10.7735	
32	0.266667	-141.228	12.4962	14.2049	-136.407	22.9847	-13.7906	-133.232	25.9578	-43.955	-129.721	19.9201	-66.662	-152.841	-4.16589	-56.5595	-123.162	-2.44622	-74.4835	-96.1653	0.547632	-56.1729	-144.258	-29.0523	-58.1648	-112.288	-22.9031	-69.2492	-92.8589	-12.5612	-35.9436	-137.578	-44.2667	-50.5482	-107.75	-40.5839	-56.3349	-95.6926	-27.1079	-27.5213	-130.131	-63.6601	-37.5586	-106.628	-50.7563	-46.068	-96.0153	-35.0202	-21.2152	-165.178	-47.7781	0.689994	-159.039	-41.6029	33.5594	-165.469	-15.3455	13.5377	
33	0.275	-145.754	15.3173	16.2549	-143.891	25.4268	-13.2165	-143.237	28.2649	-45.2682	-138.618	25.3581	-63.9995	-151.875	-9.86244	-56.4456	-123.417	-6.07009	-73.4955	-96.8897	-0.349351	-54.4199	-144.31	-28.0532	-60.1607	-114.072	-23.4862	-68.7195	-93.4553	-14.1995	-38.1502	-137.006	-44.6834	-51.6056	-109.033	-40.5935	-55.5088	-96.8158	-27.1489	-25.3672	-129.789	-64.0955	-40.5981	-107.385	-51.0922	-44.9198	-93.5062	-38.2334	-22.2922	-167.05	-45.5984	0.534669	-162.316	-43.6023	29.9194	-169.871	-15.948	12.4813	
34	0.283333	-141.132	14.7624	16.2491	-134.885	29.5318	-11.1634	-131.941	33.0144	-39.5627	-127.663	30.8685	-63.5211	-149.266	-5.8413	-56.7639	-116.789	-5.24749	-73.2366	-94.3745	-2.32828	-56.803	-141.455	-26.4766	-62.3361	-108.569	-23.8539	-67.8805	-90.7575	-15.3624	-33.3175	-135.771	-46.459	-51.2817	-104.439	-37.6192	-56.0907	-93.9981	-27.4981	-24.7987	-131.337	-63.5334	-36.2434	-104.127	-51.7235	-45.4591	-93.2451	-35.8295	-23.0631	-165.492	-43.1787	-0.427833	-160.677	-42.184	32.8997	-166.577	-14.4951	11.4107	
35	0.291667	-135.426	17.2231	18.2017	-131.635	27.7268	-12.9394	-128.009	32.3138	-38.2877	-122.797	32.5337	-62.5993	-146.731	-2.8968	-58.2651	-114.405	0.525327	-74.0263	-92.7091	0.668953	-55.7521	-138.19	-28.5769	-61.7645	-106.489	-21.0474	-67.8056	-87.4228	-13.266	-35.0055	-133.168	-45.4626	-51.2411	-101.199	-38.2073	-55.2573	-91.4537	-27.1934	-27.6485	-127.915	-61.5891	-41.6128	-101.49	-50.9142	-45.6177	-89.9247	-39.6953	-23.5371	-163.947	-44.2114	-1.85279	-159.863	-42.7173	31.37	-161.477	-11.6827	13.5226	
36	0.3	-141.202	16.3174	19.4978	-142.124	25.1552	-10.4038	-142.108	31.0108	-36.4842	-140.453	35.3671	-63.1495	-148.944	-8.82412	-56.2088	-123.195	-4.44956	-73.758	-95.9551	-0.64625	-55.2474	-142.551	-27.8385	-58.362	-112.223	-19.4806	-69.1061	-89.5827	-16.0199	-36.9214	-135.467	-46.0303	-48.1972	-106.74	-38.7051	-56.454	-94.2691	-23.2453	-24.7174	-128.062	-59.4533	-40.0119	-104.915	-49.2496	-46.0429	-90.7729	-36.4103	-21.6489	-160.946	-48.7617	3.82593	-158.561	-44.5037	32.369	-163.176	-14.8657	15.0399	
37	0.308333	-145.319	12.3657	17.1833	-147.618	21.6266	-13.0085	-146.459	25.2014	-38.4905	-145.039	26.127	-64.5836	-150.937	-10.5282	-59.3995	-124.202	-3.37734	-73.5791	-100.19	4.42642	-53.645	-144.965	-31.1923	-56.1564	-113.93	-21.9866	-67.5028	-93.5205	-15.8888	-36.2055	-136.111	-48.3907	-47.9862	-105.8	-34.7999	-54.3619	-96.458	-25.5702	-21.208	-130.918	-63.9837	-35.3543	-105.104	-52.6575	-45.1843	-94.4126	-34.5466	-26.355	-162.727	-46.2096	5.72612	-158.281	-49.2399	34.6609	-168.17	-13.9314	13.5044	
38	0.316667	-142.334	10.2387	15.4868	-134.657	24.0278	-14.6439	-130.501	25.8533	-43.8875	-123.484	20.8417	-63.8698	-152.17	-8.57998	-56.9524	-122.647	0.0198802	-74.4049	-97.9917	1.52029	-53.8647	-144.786	-26.2319	-58.7263	-111.23	-21.7497	-67.16	-94.1207	-15.6535	-30.8425	-135.033	-44.1204	-51.1373	-104.758	-36.7249	-54.0842	-97.2722	-25.7575	-23.0933	-128.885	-61.0626	-38.9542	-103.218	-53.1269	-44.1977	-94.3786	-35.0878	-17.2615	-161.716	-48.9572	2.79875	-160.851	-43.9716	31.2319	-169.218	-13.0666	12.7249	
39	0.325	-137.508	11.4013	14.6356	-124.202	22.1886	-11.04	-114.771	29.6472	-42.9725	-105.242	26.4856	-67.3487	-146.572	-6.68866	-62.0982	-122.68	-0.898856	-77.389	-94.6483	3.99788	-55.7326	-138.13	-28.2405	-62.4715	-106.006	-20.6781	-66.5868	-91.4861	-16.0958	-34.7384	-132.288	-41.2541	-51.7228	-100.785	-35.9018	-52.1705	-95.6581	-26.5881	-18.7376	-124.493	-59.7037	-41.8927	-99.5782	-49.2841	-42.7708	-96.0394	-34.953	-15.3625	-162.868	-44.1093	-0.118833	-158.383	-45.2624	29.4509	-164.989	-10.0349	13.0846	
40	0.333333	-135.528	18.9297	14.2522	-124.104	28.1598	-12.3373	-115.064	36.1129	-40.2662	-104.074	32.2315	-63.8168	-144.627	-5.24933	-62.3207	-118.284	2.25422	-76.8329	-92.3051	3.5441	-59.165	-135.601	-24.4086	-62.059	-104.535	-17.8707	-68.4262	-89.0393	-8.94093	-32.8126	-127.915	-41.6283	-52.2605	-97.758	-33.6226	-53.8231	-94.1037	-21.9773	-19.551	-124.537	-56.1919	-40.5847	-96.5837	-48.6013	-42.9881	-91.47	-31.4269	-18.0316	-159.038	-46.8738	-3.98068	-156.628	-43.6559	28.9855	-163.274	-12.1346	12.2277	
41	0.341667	-141.408	18.3354	16.9967	-134.342	28.3465	-8.13345	-130.826	35.2985	-43.4883	-123.057	24.926	-64.8426	-147.731	-2.29073	-58.5818	-123.078	4.09154	-76.9266	-94.9677	6.15867	-60.3246	-135.995	-23.7387	-62.271	-105.158	-14.1761	-68.4044	-87.8582	-11.4992	-33.156	-128.006	-41.9917	-51.4506	-99.115	-29.1064	-54.3231	-93.1921	-18.283	-22.6408	-120.233	-58.1034	-41.5456	-95.5615	-44.1172	-43.3497	-89.7034	-29.8694	-14.6498	-157.468	-45.7688	-1.48827	-154.441	-41.91	29.4235	-162.926	-11.2027	14.6054	
